<?xml version="1.0" standalone="no"?><!-- Generator: Adobe Fireworks CS6, Export SVG Extension by Aaron Beall (http://fireworks.abeall.com) . Version: 0.6.1  --><!DOCTYPE svg PUBLIC "-//W3C//DTD SVG 1.1//EN" "http://www.w3.org/Graphics/SVG/1.1/DTD/svg11.dtd"><svg id="logo4Final-Page%201" viewBox="0 0 202 202" style="background-color:#ffffff00" version="1.1"	xmlns="http://www.w3.org/2000/svg" xmlns:xlink="http://www.w3.org/1999/xlink" xml:space="preserve"	x="0px" y="0px" width="202px" height="202px">	<g id="Layer%201">		<path d="M 55 115.5 C 56.25 118.8125 64.25 127.25 76.5 129.6667 L 57.3333 88.5 C 51.5 94.5 53.4063 111.3438 55 115.5 Z" stroke="#1b1918" stroke-width="1" fill="#1b1918"/>		<path d="M 86 150 C 85.3333 160.1667 101.9974 165.1667 104.6667 165.1667 C 143.459 165.1667 127.6667 121.1667 120.8333 118.8333 L 86.575 105.4575 L 81 122 L 86 150 Z" stroke="#f50087" stroke-width="1" fill="#f50087"/>		<path d="M 123.5 105.6667 C 155.1667 110 169.5 84.5 158.3333 68.8333 C 147.6667 52.6667 123 63.1667 109.8333 74 L 87.125 96.9 L 123.5 105.6667 Z" stroke="#00b0f6" stroke-width="1" fill="#00b0f6"/>		<path d="M 95.8333 52.6667 C 102.3333 28.1667 48.8333 34.1667 62.6667 72.1667 L 77.635 104.3775 L 95.8333 52.6667 Z" stroke="#ffe900" stroke-width="1" fill="#ffe900"/>	</g></svg>