<svg xmlns="http://www.w3.org/2000/svg" xmlns:xlink="http://www.w3.org/1999/xlink" id="logo3Final-Page%201" viewBox="0 0 202 202" style="background-color:#ffffff00" version="1.1" xml:space="preserve" x="0px" y="0px" width="202px" height="202px">
	<g id="Layer%201">
		<path d="M 1 101 C 1 142.3 26 177.8 61.8 193 L 5.3 71.7 C 2.5 81 1 90.8 1 101 Z" stroke="#1b1918" stroke-width="1" fill="#1b1918"/>
		<path d="M 93.1 200.7 C 95.7 200.9 98.3 201 101 201 C 139.8 201 173.4 178.9 190 146.6 L 87.6 109.5 L 71.4 154.1 L 93.1 200.7 Z" stroke="#f50087" stroke-width="1" fill="#f50087"/>
		<path d="M 198.5 123.3 C 200.1 116.1 201 108.7 201 101 C 201 54.3 169 15.1 125.8 4.1 L 96.1 85.9 L 198.5 123.3 Z" stroke="#00b0f6" stroke-width="1" fill="#00b0f6"/>
		<path d="M 100.8 1 C 67.3 1.1 37.7 17.6 19.6 42.9 L 56.6 122.4 L 100.8 1 Z" stroke="#ffe900" stroke-width="1" fill="#ffe900"/>
	</g>
</svg>
