<?xml version="1.0" standalone="no"?><!-- Generator: Adobe Fireworks CS6, Export SVG Extension by Aaron Beall (http://fireworks.abeall.com) . Version: 0.6.1  --><!DOCTYPE svg PUBLIC "-//W3C//DTD SVG 1.1//EN" "http://www.w3.org/Graphics/SVG/1.1/DTD/svg11.dtd"><svg id="logo5Final-Page%201" viewBox="0 0 202 202" style="background-color:#ffffff00" version="1.1"	xmlns="http://www.w3.org/2000/svg" xmlns:xlink="http://www.w3.org/1999/xlink" xml:space="preserve"	x="0px" y="0px" width="202px" height="202px">	<g id="Layer%201">		<path d="M 60 116.5 C 71.25 123.375 79.5 125.5 91.875 113.5 C 103.75 87.75 80.75 78.25 62.3333 89.5 C 56.5 95.5 52.625 109 60 116.5 Z" stroke="#1b1918" stroke-width="1" fill="#1b1918"/>		<path d="M 100 128.625 C 99.3333 138.7917 114.125 150.25 129 149.375 C 143.6045 148.5159 148.125 132.875 146.75 124.375 C 145.125 116.625 133.25 107.25 128.5 107.75 C 122.75 107 112 108.625 106.5 111.875 C 99.5 117.25 99.75 121.75 100 128.625 Z" stroke="#f50087" stroke-width="1" fill="#f50087"/>		<path d="M 141.875 86.25 C 153.375 78.375 150.375 66.875 146.375 61 C 135.375 49.5 127.25 47.5 114 56 C 105.75 63.75 105.75 74.5 114.75 85.125 C 125.25 94.75 133.625 93 141.875 86.25 Z" stroke="#00b0f6" stroke-width="1" fill="#00b0f6"/>		<path d="M 98.25 56.625 C 104.75 32.125 48.8333 34.1667 62.6667 72.1667 C 62.6667 72.1667 66.5 81.25 79 79 C 97.5 77 98.25 56.625 98.25 56.625 Z" stroke="#ffe900" stroke-width="1" fill="#ffe900"/>	</g></svg>