<?xml version="1.0" standalone="no"?><!-- Generator: Adobe Fireworks CS6, Export SVG Extension by Aaron Beall (http://fireworks.abeall.com) . Version: 0.6.1  --><!DOCTYPE svg PUBLIC "-//W3C//DTD SVG 1.1//EN" "http://www.w3.org/Graphics/SVG/1.1/DTD/svg11.dtd"><svg id="logo6Final-Page%201" viewBox="0 0 202 202" style="background-color:#ffffff00" version="1.1"	xmlns="http://www.w3.org/2000/svg" xmlns:xlink="http://www.w3.org/1999/xlink" xml:space="preserve"	x="0px" y="0px" width="202px" height="202px">	<g id="Layer%201">		<path d="M 70 109.6667 C 81.8333 109.6667 78.7917 109.5 91.8333 109.5 C 91.8333 94.8333 92 97.2693 92 86.8333 C 85.3683 86.8333 78.5 86.8333 70.1667 86.8333 C 70.1667 93.1667 70 101.8333 70 109.6667 Z" stroke="#1b1918" stroke-width="1" fill="#1b1918"/>		<path d="M 106.5 146.3333 C 112.3333 146.5 131.3262 146.3566 146.3333 146.1667 C 146.8333 136.8333 146.5 132.8333 146.3333 124.1667 C 146.3333 116.3333 146.5 106.6667 146.6667 101.1667 C 140.8333 101.1667 112 101.3333 106.6667 101.5 C 106.5 106.6667 106.25 139.4583 106.5 146.3333 Z" stroke="#f50087" stroke-width="1" fill="#f50087"/>		<path d="M 152.5 86.5 C 152.5 76 152.1667 57.3333 152.1667 50 C 140 50 129.8333 49.6667 116.3333 49.6667 C 116.3333 58 116.1667 75.5 116.1667 87 C 128.1667 87 141.6667 86.5 152.5 86.5 Z" stroke="#00b0f6" stroke-width="1" fill="#00b0f6"/>		<path d="M 101.5 42.6667 C 92.3333 42.6667 84.5 42.6654 72.2501 42.6654 C 72.2501 49.1667 72 53.6667 72 70.3333 C 80.5 70.3333 88.6667 70.3333 101.3333 70.3333 C 101.3333 60.6667 101.5 54.8333 101.5 42.6667 Z" stroke="#ffe900" stroke-width="1" fill="#ffe900"/>	</g></svg>